# xmcd CD database file
#
# Track frame offsets:
#	150
#	16198
#	39560
#	63937
#	81871
#	98407
#	112778
#	130167
#
# Disc length: 1947 seconds
#
# Revision: 0
# Processed by: cddbd v1.5.2PL0 Copyright (c) Steve Scherf et al.
# Submitted via: CDex 1.70beta2
#
DISCID=52079908
DTITLE=Danny Maika - Danny Maika
DYEAR=2008
DGENRE=Jazz
TTITLE0=Bad Habits
TTITLE1=Euphoria
TTITLE2=She Can't Know
TTITLE3=Far From Through
TTITLE4=Roll with the Punches
TTITLE5=Luvable Lips
TTITLE6=A Girl like You
TTITLE7=Neverending Inspiration
EXTD=YEAR: 2008
EXTT0=
EXTT1=
EXTT2=
EXTT3=
EXTT4=
EXTT5=
EXTT6=
EXTT7=
PLAYORDER=
